<svg width="540" height="320" viewBox="0 0 540 320" fill="none" xmlns="http://www.w3.org/2000/svg">
<g clip-path="url(#clip0_140_2)">
<path d="M23.7941 6.98486H4V206.985H23.7941V6.98486Z" fill="url(#paint0_linear_140_2)"/>
<path d="M43.5886 6.98486H23.7944V86.9849H43.5886V6.98486Z" fill="url(#paint1_linear_140_2)"/>
<path d="M63.3823 46.9849H43.5881V126.985H63.3823V46.9849Z" fill="url(#paint2_linear_140_2)"/>
<path d="M83.1765 86.9849H63.3823V126.985H83.1765V86.9849Z" fill="#FF6B35"/>
<path d="M102.971 46.9849H83.1765V126.985H102.971V46.9849Z" fill="url(#paint3_linear_140_2)"/>
<path d="M122.765 6.98486H102.971V86.9849H122.765V6.98486Z" fill="url(#paint4_linear_140_2)"/>
<path d="M142.559 6.98486H122.765V206.985H142.559V6.98486Z" fill="url(#paint5_linear_140_2)"/>
<path d="M205.694 6.98486H177.199V206.985H205.694V6.98486Z" fill="url(#paint6_linear_140_2)"/>
<path d="M267.435 6.98486H205.695V36.9849H267.435V6.98486Z" fill="url(#paint7_linear_140_2)"/>
<path d="M267.435 176.985H205.695V206.985H267.435V176.985Z" fill="url(#paint8_linear_140_2)"/>
<path d="M295.931 6.98486H267.435V206.985H295.931V6.98486Z" fill="url(#paint9_linear_140_2)"/>
<path d="M399.915 6.98486H330.636V36.9849H399.915V6.98486Z" fill="url(#paint10_linear_140_2)"/>
<path d="M380.121 6.98486H350.43V206.985H380.121V6.98486Z" fill="url(#paint11_linear_140_2)"/>
<path d="M399.915 176.985H330.636V206.985H399.915V176.985Z" fill="url(#paint12_linear_140_2)"/>
<path d="M471.669 6.98486H441.978V206.985H471.669V6.98486Z" fill="url(#paint13_linear_140_2)"/>
<path d="M536 6.98486H471.669V36.9849H536V6.98486Z" fill="url(#paint14_linear_140_2)"/>
<path d="M536 176.985H471.669V206.985H536V176.985Z" fill="url(#paint15_linear_140_2)"/>
<path d="M2.87008 280.725H63.8661V285.689H2.87008V280.725ZM30.4781 263.045H35.8501V316.425H30.4781V263.045ZM53.2581 254.749L57.2021 259.033C54.0287 259.985 50.4701 260.869 46.5261 261.685C42.5821 262.456 38.4341 263.181 34.0821 263.861C29.7301 264.496 25.3327 265.085 20.8901 265.629C16.4474 266.128 12.1407 266.558 7.97008 266.921C7.92474 266.468 7.81141 265.969 7.63008 265.425C7.49408 264.881 7.31274 264.337 7.08608 263.793C6.90474 263.249 6.72341 262.796 6.54208 262.433C10.6674 262.025 14.9061 261.572 19.2581 261.073C23.6101 260.529 27.8714 259.94 32.0421 259.305C36.2127 258.625 40.1114 257.922 43.7381 257.197C47.4101 256.426 50.5834 255.61 53.2581 254.749ZM71.0741 258.421H131.73V262.569H71.0741V258.421ZM71.0741 271.681H131.662V275.829H71.0741V271.681ZM87.1221 253.865H92.1541V267.737H87.1221V253.865ZM110.31 253.865H115.342V268.009H110.31V253.865ZM70.9381 297.249H131.934V301.329H70.9381V297.249ZM98.6821 291.537H103.714V316.425H98.6821V291.537ZM96.9141 299.289L100.722 301.125C99.0901 302.712 97.1861 304.23 95.0101 305.681C92.8341 307.132 90.4767 308.469 87.9381 309.693C85.4447 310.917 82.8834 312.028 80.2541 313.025C77.6247 314.022 75.1087 314.838 72.7061 315.473C72.4341 315.065 72.1167 314.589 71.7541 314.045C71.3914 313.546 71.0061 313.048 70.5981 312.549C70.2354 312.096 69.8501 311.688 69.4421 311.325C71.8901 310.826 74.4061 310.169 76.9901 309.353C79.6194 308.537 82.1581 307.608 84.6061 306.565C87.0994 305.477 89.3887 304.321 91.4741 303.097C93.6047 301.828 95.4181 300.558 96.9141 299.289ZM105.618 298.949C107.522 300.853 109.947 302.621 112.894 304.253C115.886 305.885 119.15 307.313 122.686 308.537C126.222 309.716 129.735 310.622 133.226 311.257C132.863 311.62 132.455 312.05 132.002 312.549C131.594 313.093 131.209 313.637 130.846 314.181C130.483 314.725 130.166 315.224 129.894 315.677C127.265 315.042 124.613 314.226 121.938 313.229C119.309 312.277 116.747 311.144 114.254 309.829C111.761 308.514 109.449 307.086 107.318 305.545C105.187 303.958 103.329 302.304 101.742 300.581L105.618 298.949ZM80.3221 266.717H85.3541V288.069H129.554V292.217H80.3221V266.717ZM96.7101 266.105H101.606V280.793H115.75V266.649H120.782V284.125H96.7101V266.105ZM164.438 257.945C164.302 258.534 164.166 259.192 164.03 259.917C163.894 260.597 163.758 261.277 163.622 261.957C163.486 262.773 163.282 263.884 163.01 265.289C162.783 266.694 162.534 268.19 162.262 269.777C161.99 271.318 161.673 272.792 161.31 274.197C160.857 276.146 160.29 278.345 159.61 280.793C158.93 283.196 158.159 285.757 157.298 288.477C156.437 291.197 155.462 293.985 154.374 296.841C153.286 299.652 152.085 302.462 150.77 305.273C149.455 308.038 148.027 310.645 146.486 313.093L140.91 310.917C142.497 308.832 143.947 306.497 145.262 303.913C146.622 301.329 147.869 298.654 149.002 295.889C150.135 293.078 151.155 290.313 152.062 287.593C153.014 284.873 153.807 282.357 154.442 280.045C155.077 277.733 155.575 275.738 155.938 274.061C156.573 271.341 157.094 268.53 157.502 265.629C157.91 262.682 158.114 259.894 158.114 257.265L164.438 257.945ZM187.83 265.153C188.918 266.558 190.051 268.304 191.23 270.389C192.454 272.474 193.633 274.696 194.766 277.053C195.945 279.41 197.01 281.677 197.962 283.853C198.914 286.029 199.685 287.91 200.274 289.497L194.97 292.013C194.471 290.29 193.791 288.318 192.93 286.097C192.069 283.83 191.071 281.541 189.938 279.229C188.85 276.872 187.694 274.673 186.47 272.633C185.291 270.548 184.09 268.802 182.866 267.397L187.83 265.153ZM139.958 272.837C141.001 272.928 141.998 272.973 142.95 272.973C143.902 272.928 144.922 272.882 146.01 272.837C147.053 272.792 148.367 272.724 149.954 272.633C151.541 272.497 153.263 272.361 155.122 272.225C157.026 272.089 158.885 271.953 160.698 271.817C162.557 271.636 164.257 271.5 165.798 271.409C167.385 271.273 168.631 271.205 169.538 271.205C171.578 271.205 173.414 271.522 175.046 272.157C176.723 272.792 178.061 273.948 179.058 275.625C180.055 277.302 180.554 279.66 180.554 282.697C180.554 285.372 180.418 288.273 180.146 291.401C179.919 294.484 179.511 297.43 178.922 300.241C178.333 303.052 177.562 305.386 176.61 307.245C175.567 309.557 174.207 311.076 172.53 311.801C170.853 312.572 168.903 312.957 166.682 312.957C165.413 312.957 164.03 312.844 162.534 312.617C161.038 312.436 159.746 312.209 158.658 311.937L157.774 306.293C158.771 306.565 159.769 306.814 160.766 307.041C161.809 307.268 162.806 307.426 163.758 307.517C164.71 307.608 165.503 307.653 166.138 307.653C167.362 307.653 168.473 307.449 169.47 307.041C170.513 306.588 171.374 305.636 172.054 304.185C172.779 302.644 173.369 300.717 173.822 298.405C174.321 296.048 174.683 293.554 174.91 290.925C175.182 288.296 175.318 285.78 175.318 283.377C175.318 281.246 175.023 279.682 174.434 278.685C173.845 277.642 173.006 276.94 171.918 276.577C170.83 276.169 169.561 275.965 168.11 275.965C166.931 275.965 165.367 276.056 163.418 276.237C161.469 276.373 159.383 276.554 157.162 276.781C154.986 277.008 152.946 277.234 151.042 277.461C149.138 277.642 147.665 277.801 146.622 277.937C145.851 278.028 144.854 278.164 143.63 278.345C142.451 278.481 141.409 278.617 140.502 278.753L139.958 272.837ZM250.526 260.801C249.801 261.345 248.985 262.025 248.078 262.841C247.171 263.612 246.423 264.224 245.834 264.677C244.655 265.72 243.227 266.944 241.55 268.349C239.873 269.709 238.105 271.16 236.246 272.701C234.387 274.197 232.597 275.648 230.874 277.053C229.151 278.413 227.655 279.637 226.386 280.725C225.026 281.904 224.119 282.878 223.666 283.649C223.213 284.374 223.213 285.122 223.666 285.893C224.165 286.664 225.139 287.684 226.59 288.953C227.859 289.95 229.31 291.129 230.942 292.489C232.574 293.804 234.297 295.232 236.11 296.773C237.969 298.314 239.85 299.901 241.754 301.533C243.658 303.165 245.494 304.774 247.262 306.361C249.03 307.948 250.617 309.466 252.022 310.917L247.194 315.405C245.789 313.773 244.225 312.118 242.502 310.441C241.323 309.217 239.85 307.789 238.082 306.157C236.314 304.525 234.41 302.825 232.37 301.057C230.375 299.289 228.381 297.589 226.386 295.957C224.437 294.28 222.669 292.784 221.082 291.469C218.906 289.656 217.523 288.069 216.934 286.709C216.345 285.304 216.458 283.921 217.274 282.561C218.09 281.201 219.518 279.682 221.558 278.005C222.827 276.917 224.346 275.648 226.114 274.197C227.927 272.746 229.809 271.228 231.758 269.641C233.707 268.009 235.543 266.445 237.266 264.949C239.034 263.408 240.485 262.048 241.618 260.869C242.298 260.189 243.001 259.418 243.726 258.557C244.497 257.696 245.086 256.948 245.494 256.313L250.526 260.801ZM317.606 288.341C317.606 286.437 317.107 284.76 316.11 283.309C315.158 281.813 313.798 280.657 312.03 279.841C310.307 278.98 308.29 278.549 305.978 278.549C303.349 278.549 300.878 278.753 298.566 279.161C296.254 279.569 294.146 280.045 292.242 280.589C290.383 281.133 288.774 281.586 287.414 281.949C286.371 282.266 285.351 282.606 284.354 282.969C283.402 283.332 282.518 283.694 281.702 284.057L279.934 277.733C280.886 277.642 281.906 277.506 282.994 277.325C284.127 277.144 285.193 276.94 286.19 276.713C287.822 276.35 289.703 275.92 291.834 275.421C294.01 274.922 296.345 274.469 298.838 274.061C301.377 273.653 303.938 273.449 306.522 273.449C309.741 273.449 312.619 274.038 315.158 275.217C317.697 276.396 319.691 278.118 321.142 280.385C322.638 282.606 323.386 285.326 323.386 288.545C323.386 292.262 322.615 295.572 321.074 298.473C319.533 301.329 317.357 303.822 314.546 305.953C311.781 308.038 308.517 309.784 304.754 311.189C300.991 312.594 296.911 313.614 292.514 314.249L289.454 309.081C293.534 308.582 297.297 307.789 300.742 306.701C304.187 305.568 307.157 304.162 309.65 302.485C312.189 300.808 314.138 298.79 315.498 296.433C316.903 294.076 317.606 291.378 317.606 288.341ZM289.046 257.741C290.905 258.149 293.126 258.534 295.71 258.897C298.339 259.26 301.037 259.6 303.802 259.917C306.613 260.189 309.242 260.416 311.69 260.597C314.183 260.778 316.269 260.869 317.946 260.869L317.13 266.105C315.226 265.969 313.005 265.81 310.466 265.629C307.973 265.402 305.366 265.153 302.646 264.881C299.971 264.564 297.365 264.246 294.826 263.929C292.333 263.566 290.111 263.226 288.162 262.909L289.046 257.741ZM343.99 263.385H398.73V267.941H343.99V263.385ZM347.322 273.517H395.67V277.937H347.322V273.517ZM341.27 283.649H401.382V288.273H341.27V283.649ZM340.726 294.597H402.13V299.153H340.726V294.597ZM368.606 265.969H373.774V286.981H368.606V265.969ZM352.626 255.633L357.114 253.729C358.338 254.998 359.494 256.426 360.582 258.013C361.715 259.6 362.531 261.05 363.03 262.365L358.27 264.473C357.862 263.204 357.137 261.73 356.094 260.053C355.051 258.376 353.895 256.902 352.626 255.633ZM384.586 253.729L389.89 255.361C388.802 256.948 387.646 258.512 386.422 260.053C385.243 261.594 384.133 262.909 383.09 263.997L378.67 262.501C379.35 261.685 380.053 260.778 380.778 259.781C381.503 258.738 382.206 257.696 382.886 256.653C383.566 255.565 384.133 254.59 384.586 253.729ZM368.266 287.457H373.638C373.275 290.63 372.731 293.554 372.006 296.229C371.281 298.858 370.238 301.238 368.878 303.369C367.563 305.5 365.773 307.404 363.506 309.081C361.239 310.758 358.383 312.186 354.938 313.365C351.493 314.589 347.322 315.609 342.426 316.425C342.335 315.972 342.131 315.473 341.814 314.929C341.542 314.385 341.225 313.818 340.862 313.229C340.545 312.685 340.205 312.232 339.842 311.869C344.421 311.189 348.297 310.35 351.47 309.353C354.689 308.356 357.318 307.154 359.358 305.749C361.443 304.344 363.075 302.757 364.254 300.989C365.433 299.176 366.317 297.158 366.906 294.937C367.495 292.67 367.949 290.177 368.266 287.457ZM375.134 295.957C377.083 300.808 380.37 304.502 384.994 307.041C389.618 309.534 395.647 311.121 403.082 311.801C402.719 312.164 402.334 312.617 401.926 313.161C401.518 313.75 401.133 314.34 400.77 314.929C400.453 315.518 400.181 316.04 399.954 316.493C394.786 315.813 390.253 314.68 386.354 313.093C382.501 311.552 379.259 309.466 376.63 306.837C374.046 304.162 371.983 300.83 370.442 296.841L375.134 295.957ZM427.698 281.881L432.05 282.493C431.823 285.666 431.483 288.794 431.03 291.877C430.577 294.96 430.01 297.838 429.33 300.513C428.695 303.142 427.879 305.5 426.882 307.585C426.61 307.358 426.247 307.109 425.794 306.837C425.386 306.52 424.933 306.225 424.434 305.953C423.981 305.636 423.55 305.386 423.142 305.205C424.139 303.301 424.933 301.102 425.522 298.609C426.111 296.116 426.565 293.441 426.882 290.585C427.245 287.729 427.517 284.828 427.698 281.881ZM425.93 268.825H451.43V273.585H425.93V268.825ZM436.198 254.817H441.026V315.405H436.198V254.817ZM444.29 282.765L448.302 282.017C448.846 284.148 449.367 286.437 449.866 288.885C450.41 291.288 450.863 293.645 451.226 295.957C451.634 298.269 451.906 300.354 452.042 302.213L447.894 303.029C447.758 301.17 447.509 299.085 447.146 296.773C446.783 294.416 446.353 292.036 445.854 289.633C445.401 287.185 444.879 284.896 444.29 282.765ZM453.402 257.877H469.654V262.433H453.402V257.877ZM451.77 276.645H470.606V281.269H451.77V276.645ZM442.93 257.197L446.398 255.565C447.577 256.97 448.71 258.557 449.798 260.325C450.931 262.048 451.747 263.544 452.246 264.813L448.642 266.649C448.143 265.38 447.35 263.861 446.262 262.093C445.174 260.28 444.063 258.648 442.93 257.197ZM459.59 278.005H464.486V310.373C464.486 311.778 464.305 312.866 463.942 313.637C463.625 314.453 462.967 315.088 461.97 315.541C461.018 315.904 459.749 316.13 458.162 316.221C456.575 316.357 454.581 316.425 452.178 316.425C452.133 315.745 451.951 314.929 451.634 313.977C451.362 313.025 451.067 312.186 450.75 311.461C452.473 311.506 454.037 311.529 455.442 311.529C456.893 311.574 457.867 311.574 458.366 311.529C458.865 311.484 459.182 311.37 459.318 311.189C459.499 311.053 459.59 310.781 459.59 310.373V278.005ZM419.538 253.865L424.23 255.565C423.142 257.424 421.827 259.328 420.286 261.277C418.745 263.181 417.113 264.994 415.39 266.717C413.713 268.44 411.99 269.981 410.222 271.341C410.041 271.024 409.769 270.638 409.406 270.185C409.089 269.686 408.749 269.21 408.386 268.757C408.023 268.258 407.706 267.85 407.434 267.533C408.975 266.354 410.517 265.017 412.058 263.521C413.645 261.98 415.095 260.37 416.41 258.693C417.725 257.016 418.767 255.406 419.538 253.865ZM415.526 280.997L419.606 276.849L420.218 277.053V316.493H415.526V280.997ZM421.578 267.533L426.134 269.097C424.819 271.908 423.255 274.696 421.442 277.461C419.629 280.181 417.702 282.742 415.662 285.145C413.622 287.548 411.559 289.678 409.474 291.537C409.293 291.174 409.021 290.721 408.658 290.177C408.295 289.588 407.91 289.021 407.502 288.477C407.094 287.888 406.731 287.434 406.414 287.117C409.361 284.714 412.194 281.79 414.914 278.345C417.634 274.9 419.855 271.296 421.578 267.533ZM511.134 308.469H534.594V312.957H511.134V308.469ZM509.026 272.157H513.718V316.425H509.026V272.157ZM511.134 272.157H533.846V289.157H511.134V284.873H529.086V276.441H511.134V272.157ZM504.878 261.277H538.334V272.769H533.506V265.493H509.502V272.769H504.878V261.277ZM518.682 253.797H523.714V263.589H518.682V253.797ZM511.134 294.869H536.702V315.949H531.942V299.221H511.134V294.869ZM489.85 265.357H494.202V273.789H489.85V265.357ZM480.942 271.817H485.566V309.761H480.942V271.817ZM483.798 280.997H499.642V284.601H483.798V280.997ZM476.25 308.945C478.199 308.492 480.398 307.993 482.846 307.449C485.339 306.86 487.969 306.225 490.734 305.545C493.545 304.82 496.333 304.117 499.098 303.437L499.642 307.517C495.834 308.65 492.003 309.761 488.15 310.849C484.342 311.892 480.919 312.844 477.882 313.705L476.25 308.945ZM492.298 298.337L496.378 296.501C497.602 298.088 498.781 299.81 499.914 301.669C501.093 303.482 502.113 305.296 502.974 307.109C503.881 308.877 504.561 310.464 505.014 311.869L500.662 313.977C500.254 312.572 499.619 310.962 498.758 309.149C497.897 307.29 496.899 305.432 495.766 303.573C494.678 301.669 493.522 299.924 492.298 298.337ZM483.458 271.817H501.886V293.985H483.458V290.109H497.33V275.693H483.458V271.817ZM488.49 253.865H491.21V254.953H492.706V256.381C491.799 258.104 490.666 260.03 489.306 262.161C487.946 264.246 486.337 266.377 484.478 268.553C482.665 270.684 480.557 272.724 478.154 274.673C477.927 274.31 477.61 273.925 477.202 273.517C476.839 273.109 476.454 272.724 476.046 272.361C475.638 271.953 475.253 271.636 474.89 271.409C477.111 269.732 479.083 267.873 480.806 265.833C482.529 263.793 484.025 261.753 485.294 259.713C486.609 257.628 487.674 255.678 488.49 253.865ZM489.782 253.865H493.454C494.814 255.044 496.219 256.336 497.67 257.741C499.121 259.146 500.458 260.552 501.682 261.957C502.906 263.362 503.881 264.654 504.606 265.833L501.274 269.641C500.549 268.508 499.619 267.193 498.486 265.697C497.353 264.201 496.106 262.705 494.746 261.209C493.386 259.713 492.026 258.444 490.666 257.401H489.782V253.865Z" fill="black"/>
</g>
<defs>
<linearGradient id="paint0_linear_140_2" x1="4" y1="6.98486" x2="1983.41" y2="6.98486" gradientUnits="userSpaceOnUse">
<stop/>
<stop offset="0.5" stop-color="#666666"/>
<stop offset="1"/>
</linearGradient>
<linearGradient id="paint1_linear_140_2" x1="23.7944" y1="6.98486" x2="2003.21" y2="6.98486" gradientUnits="userSpaceOnUse">
<stop/>
<stop offset="0.5" stop-color="#666666"/>
<stop offset="1"/>
</linearGradient>
<linearGradient id="paint2_linear_140_2" x1="43.5881" y1="46.9849" x2="2023" y2="46.9849" gradientUnits="userSpaceOnUse">
<stop/>
<stop offset="0.5" stop-color="#666666"/>
<stop offset="1"/>
</linearGradient>
<linearGradient id="paint3_linear_140_2" x1="83.1765" y1="46.9849" x2="2062.59" y2="46.9849" gradientUnits="userSpaceOnUse">
<stop/>
<stop offset="0.5" stop-color="#666666"/>
<stop offset="1"/>
</linearGradient>
<linearGradient id="paint4_linear_140_2" x1="102.971" y1="6.98486" x2="2082.38" y2="6.98486" gradientUnits="userSpaceOnUse">
<stop/>
<stop offset="0.5" stop-color="#666666"/>
<stop offset="1"/>
</linearGradient>
<linearGradient id="paint5_linear_140_2" x1="122.765" y1="6.98486" x2="2102.18" y2="6.98486" gradientUnits="userSpaceOnUse">
<stop/>
<stop offset="0.5" stop-color="#666666"/>
<stop offset="1"/>
</linearGradient>
<linearGradient id="paint6_linear_140_2" x1="177.199" y1="6.98486" x2="3026.77" y2="6.98486" gradientUnits="userSpaceOnUse">
<stop/>
<stop offset="0.5" stop-color="#666666"/>
<stop offset="1"/>
</linearGradient>
<linearGradient id="paint7_linear_140_2" x1="205.695" y1="6.98486" x2="6379.77" y2="6.98486" gradientUnits="userSpaceOnUse">
<stop/>
<stop offset="0.5" stop-color="#666666"/>
<stop offset="1"/>
</linearGradient>
<linearGradient id="paint8_linear_140_2" x1="205.695" y1="176.985" x2="6379.77" y2="176.985" gradientUnits="userSpaceOnUse">
<stop/>
<stop offset="0.5" stop-color="#666666"/>
<stop offset="1"/>
</linearGradient>
<linearGradient id="paint9_linear_140_2" x1="267.435" y1="6.98486" x2="3117.01" y2="6.98486" gradientUnits="userSpaceOnUse">
<stop/>
<stop offset="0.5" stop-color="#666666"/>
<stop offset="1"/>
</linearGradient>
<linearGradient id="paint10_linear_140_2" x1="330.636" y1="6.98486" x2="7258.58" y2="6.98486" gradientUnits="userSpaceOnUse">
<stop/>
<stop offset="0.5" stop-color="#666666"/>
<stop offset="1"/>
</linearGradient>
<linearGradient id="paint11_linear_140_2" x1="350.43" y1="6.98486" x2="3319.55" y2="6.98486" gradientUnits="userSpaceOnUse">
<stop/>
<stop offset="0.5" stop-color="#666666"/>
<stop offset="1"/>
</linearGradient>
<linearGradient id="paint12_linear_140_2" x1="330.636" y1="176.985" x2="7258.58" y2="176.985" gradientUnits="userSpaceOnUse">
<stop/>
<stop offset="0.5" stop-color="#666666"/>
<stop offset="1"/>
</linearGradient>
<linearGradient id="paint13_linear_140_2" x1="441.978" y1="6.98486" x2="3411.1" y2="6.98486" gradientUnits="userSpaceOnUse">
<stop/>
<stop offset="0.5" stop-color="#666666"/>
<stop offset="1"/>
</linearGradient>
<linearGradient id="paint14_linear_140_2" x1="471.669" y1="6.98486" x2="6904.76" y2="6.98486" gradientUnits="userSpaceOnUse">
<stop/>
<stop offset="0.5" stop-color="#666666"/>
<stop offset="1"/>
</linearGradient>
<linearGradient id="paint15_linear_140_2" x1="471.669" y1="176.985" x2="6904.76" y2="176.985" gradientUnits="userSpaceOnUse">
<stop/>
<stop offset="0.5" stop-color="#666666"/>
<stop offset="1"/>
</linearGradient>
<clipPath id="clip0_140_2">
<rect width="540" height="320" fill="white"/>
</clipPath>
</defs>
</svg>
