<svg width="540" height="320" viewBox="0 0 540 320" fill="none" xmlns="http://www.w3.org/2000/svg">
<g clip-path="url(#clip0_144_131)">
<path d="M23.7943 6.98486H4.00012V206.985H23.7943V6.98486Z" fill="url(#paint0_linear_144_131)"/>
<path d="M43.5887 6.98486H23.7946V86.9849H43.5887V6.98486Z" fill="url(#paint1_linear_144_131)"/>
<path d="M63.3823 46.9849H43.5881V126.985H63.3823V46.9849Z" fill="url(#paint2_linear_144_131)"/>
<path d="M83.1767 86.9849H63.3826V126.985H83.1767V86.9849Z" fill="#FF6B35"/>
<path d="M102.971 46.9849H83.1766V126.985H102.971V46.9849Z" fill="url(#paint3_linear_144_131)"/>
<path d="M122.765 6.98486H102.971V86.9849H122.765V6.98486Z" fill="url(#paint4_linear_144_131)"/>
<path d="M142.559 6.98486H122.765V206.985H142.559V6.98486Z" fill="url(#paint5_linear_144_131)"/>
<path d="M205.695 6.98486H177.199V206.985H205.695V6.98486Z" fill="url(#paint6_linear_144_131)"/>
<path d="M267.435 6.98486H205.695V36.9849H267.435V6.98486Z" fill="url(#paint7_linear_144_131)"/>
<path d="M267.435 176.985H205.695V206.985H267.435V176.985Z" fill="url(#paint8_linear_144_131)"/>
<path d="M295.931 6.98486H267.435V206.985H295.931V6.98486Z" fill="url(#paint9_linear_144_131)"/>
<path d="M399.915 6.98486H330.636V36.9849H399.915V6.98486Z" fill="url(#paint10_linear_144_131)"/>
<path d="M380.121 6.98486H350.43V206.985H380.121V6.98486Z" fill="url(#paint11_linear_144_131)"/>
<path d="M399.916 176.985H330.636V206.985H399.916V176.985Z" fill="url(#paint12_linear_144_131)"/>
<path d="M471.669 6.98486H441.978V206.985H471.669V6.98486Z" fill="url(#paint13_linear_144_131)"/>
<path d="M536 6.98486H471.669V36.9849H536V6.98486Z" fill="url(#paint14_linear_144_131)"/>
<path d="M536 176.985H471.669V206.985H536V176.985Z" fill="url(#paint15_linear_144_131)"/>
<path d="M2.54018 280.725H63.5362V285.689H2.54018V280.725ZM30.1482 263.045H35.5202V316.425H30.1482V263.045ZM52.9282 254.749L56.8722 259.033C53.6988 259.985 50.1402 260.869 46.1962 261.685C42.2522 262.456 38.1042 263.181 33.7522 263.861C29.4002 264.496 25.0028 265.085 20.5602 265.629C16.1175 266.128 11.8108 266.558 7.64018 266.921C7.59485 266.468 7.48151 265.969 7.30018 265.425C7.16418 264.881 6.98285 264.337 6.75618 263.793C6.57485 263.249 6.39351 262.796 6.21218 262.433C10.3375 262.025 14.5762 261.572 18.9282 261.073C23.2802 260.529 27.5415 259.94 31.7122 259.305C35.8828 258.625 39.7815 257.922 43.4082 257.197C47.0802 256.426 50.2535 255.61 52.9282 254.749ZM70.7442 258.421H131.4V262.569H70.7442V258.421ZM70.7442 271.681H131.332V275.829H70.7442V271.681ZM86.7922 253.865H91.8242V267.737H86.7922V253.865ZM109.98 253.865H115.012V268.009H109.98V253.865ZM70.6082 297.249H131.604V301.329H70.6082V297.249ZM98.3522 291.537H103.384V316.425H98.3522V291.537ZM96.5842 299.289L100.392 301.125C98.7602 302.712 96.8562 304.23 94.6802 305.681C92.5042 307.132 90.1468 308.469 87.6082 309.693C85.1148 310.917 82.5535 312.028 79.9242 313.025C77.2948 314.022 74.7788 314.838 72.3762 315.473C72.1042 315.065 71.7868 314.589 71.4242 314.045C71.0615 313.546 70.6762 313.048 70.2682 312.549C69.9055 312.096 69.5202 311.688 69.1122 311.325C71.5602 310.826 74.0762 310.169 76.6602 309.353C79.2895 308.537 81.8282 307.608 84.2762 306.565C86.7695 305.477 89.0588 304.321 91.1442 303.097C93.2748 301.828 95.0882 300.558 96.5842 299.289ZM105.288 298.949C107.192 300.853 109.618 302.621 112.564 304.253C115.556 305.885 118.82 307.313 122.356 308.537C125.892 309.716 129.406 310.622 132.896 311.257C132.534 311.62 132.126 312.05 131.672 312.549C131.264 313.093 130.879 313.637 130.516 314.181C130.154 314.725 129.836 315.224 129.564 315.677C126.935 315.042 124.283 314.226 121.608 313.229C118.979 312.277 116.418 311.144 113.924 309.829C111.431 308.514 109.119 307.086 106.988 305.545C104.858 303.958 102.999 302.304 101.412 300.581L105.288 298.949ZM79.9922 266.717H85.0242V288.069H129.224V292.217H79.9922V266.717ZM96.3802 266.105H101.276V280.793H115.42V266.649H120.452V284.125H96.3802V266.105ZM164.108 257.945C163.972 258.534 163.836 259.192 163.7 259.917C163.564 260.597 163.428 261.277 163.292 261.957C163.156 262.773 162.952 263.884 162.68 265.289C162.454 266.694 162.204 268.19 161.932 269.777C161.66 271.318 161.343 272.792 160.98 274.197C160.527 276.146 159.96 278.345 159.28 280.793C158.6 283.196 157.83 285.757 156.968 288.477C156.107 291.197 155.132 293.985 154.044 296.841C152.956 299.652 151.755 302.462 150.44 305.273C149.126 308.038 147.698 310.645 146.156 313.093L140.58 310.917C142.167 308.832 143.618 306.497 144.932 303.913C146.292 301.329 147.539 298.654 148.672 295.889C149.806 293.078 150.826 290.313 151.732 287.593C152.684 284.873 153.478 282.357 154.112 280.045C154.747 277.733 155.246 275.738 155.608 274.061C156.243 271.341 156.764 268.53 157.172 265.629C157.58 262.682 157.784 259.894 157.784 257.265L164.108 257.945ZM187.5 265.153C188.588 266.558 189.722 268.304 190.9 270.389C192.124 272.474 193.303 274.696 194.436 277.053C195.615 279.41 196.68 281.677 197.632 283.853C198.584 286.029 199.355 287.91 199.944 289.497L194.64 292.013C194.142 290.29 193.462 288.318 192.6 286.097C191.739 283.83 190.742 281.541 189.608 279.229C188.52 276.872 187.364 274.673 186.14 272.633C184.962 270.548 183.76 268.802 182.536 267.397L187.5 265.153ZM139.628 272.837C140.671 272.928 141.668 272.973 142.62 272.973C143.572 272.928 144.592 272.882 145.68 272.837C146.723 272.792 148.038 272.724 149.624 272.633C151.211 272.497 152.934 272.361 154.792 272.225C156.696 272.089 158.555 271.953 160.368 271.817C162.227 271.636 163.927 271.5 165.468 271.409C167.055 271.273 168.302 271.205 169.208 271.205C171.248 271.205 173.084 271.522 174.716 272.157C176.394 272.792 177.731 273.948 178.728 275.625C179.726 277.302 180.224 279.66 180.224 282.697C180.224 285.372 180.088 288.273 179.816 291.401C179.59 294.484 179.182 297.43 178.592 300.241C178.003 303.052 177.232 305.386 176.28 307.245C175.238 309.557 173.878 311.076 172.2 311.801C170.523 312.572 168.574 312.957 166.352 312.957C165.083 312.957 163.7 312.844 162.204 312.617C160.708 312.436 159.416 312.209 158.328 311.937L157.444 306.293C158.442 306.565 159.439 306.814 160.436 307.041C161.479 307.268 162.476 307.426 163.428 307.517C164.38 307.608 165.174 307.653 165.808 307.653C167.032 307.653 168.143 307.449 169.14 307.041C170.183 306.588 171.044 305.636 171.724 304.185C172.45 302.644 173.039 300.717 173.492 298.405C173.991 296.048 174.354 293.554 174.58 290.925C174.852 288.296 174.988 285.78 174.988 283.377C174.988 281.246 174.694 279.682 174.104 278.685C173.515 277.642 172.676 276.94 171.588 276.577C170.5 276.169 169.231 275.965 167.78 275.965C166.602 275.965 165.038 276.056 163.088 276.237C161.139 276.373 159.054 276.554 156.832 276.781C154.656 277.008 152.616 277.234 150.712 277.461C148.808 277.642 147.335 277.801 146.292 277.937C145.522 278.028 144.524 278.164 143.3 278.345C142.122 278.481 141.079 278.617 140.172 278.753L139.628 272.837ZM250.196 260.801C249.471 261.345 248.655 262.025 247.748 262.841C246.842 263.612 246.094 264.224 245.504 264.677C244.326 265.72 242.898 266.944 241.22 268.349C239.543 269.709 237.775 271.16 235.916 272.701C234.058 274.197 232.267 275.648 230.544 277.053C228.822 278.413 227.326 279.637 226.056 280.725C224.696 281.904 223.79 282.878 223.336 283.649C222.883 284.374 222.883 285.122 223.336 285.893C223.835 286.664 224.81 287.684 226.26 288.953C227.53 289.95 228.98 291.129 230.612 292.489C232.244 293.804 233.967 295.232 235.78 296.773C237.639 298.314 239.52 299.901 241.424 301.533C243.328 303.165 245.164 304.774 246.932 306.361C248.7 307.948 250.287 309.466 251.692 310.917L246.864 315.405C245.459 313.773 243.895 312.118 242.172 310.441C240.994 309.217 239.52 307.789 237.752 306.157C235.984 304.525 234.08 302.825 232.04 301.057C230.046 299.289 228.051 297.589 226.056 295.957C224.107 294.28 222.339 292.784 220.752 291.469C218.576 289.656 217.194 288.069 216.604 286.709C216.015 285.304 216.128 283.921 216.944 282.561C217.76 281.201 219.188 279.682 221.228 278.005C222.498 276.917 224.016 275.648 225.784 274.197C227.598 272.746 229.479 271.228 231.428 269.641C233.378 268.009 235.214 266.445 236.936 264.949C238.704 263.408 240.155 262.048 241.288 260.869C241.968 260.189 242.671 259.418 243.396 258.557C244.167 257.696 244.756 256.948 245.164 256.313L250.196 260.801ZM317.276 288.341C317.276 286.437 316.777 284.76 315.78 283.309C314.828 281.813 313.468 280.657 311.7 279.841C309.977 278.98 307.96 278.549 305.648 278.549C303.019 278.549 300.548 278.753 298.236 279.161C295.924 279.569 293.816 280.045 291.912 280.589C290.053 281.133 288.444 281.586 287.084 281.949C286.041 282.266 285.021 282.606 284.024 282.969C283.072 283.332 282.188 283.694 281.372 284.057L279.604 277.733C280.556 277.642 281.576 277.506 282.664 277.325C283.797 277.144 284.863 276.94 285.86 276.713C287.492 276.35 289.373 275.92 291.504 275.421C293.68 274.922 296.015 274.469 298.508 274.061C301.047 273.653 303.608 273.449 306.192 273.449C309.411 273.449 312.289 274.038 314.828 275.217C317.367 276.396 319.361 278.118 320.812 280.385C322.308 282.606 323.056 285.326 323.056 288.545C323.056 292.262 322.285 295.572 320.744 298.473C319.203 301.329 317.027 303.822 314.216 305.953C311.451 308.038 308.187 309.784 304.424 311.189C300.661 312.594 296.581 313.614 292.184 314.249L289.124 309.081C293.204 308.582 296.967 307.789 300.412 306.701C303.857 305.568 306.827 304.162 309.32 302.485C311.859 300.808 313.808 298.79 315.168 296.433C316.573 294.076 317.276 291.378 317.276 288.341ZM288.716 257.741C290.575 258.149 292.796 258.534 295.38 258.897C298.009 259.26 300.707 259.6 303.472 259.917C306.283 260.189 308.912 260.416 311.36 260.597C313.853 260.778 315.939 260.869 317.616 260.869L316.8 266.105C314.896 265.969 312.675 265.81 310.136 265.629C307.643 265.402 305.036 265.153 302.316 264.881C299.641 264.564 297.035 264.246 294.496 263.929C292.003 263.566 289.781 263.226 287.832 262.909L288.716 257.741ZM343.32 263.385H398.06V267.941H343.32V263.385ZM346.652 273.517H395V277.937H346.652V273.517ZM340.6 283.649H400.712V288.273H340.6V283.649ZM340.056 294.597H401.46V299.153H340.056V294.597ZM367.936 265.969H373.104V286.981H367.936V265.969ZM351.956 255.633L356.444 253.729C357.668 254.998 358.824 256.426 359.912 258.013C361.045 259.6 361.861 261.05 362.36 262.365L357.6 264.473C357.192 263.204 356.467 261.73 355.424 260.053C354.381 258.376 353.225 256.902 351.956 255.633ZM383.916 253.729L389.22 255.361C388.132 256.948 386.976 258.512 385.752 260.053C384.573 261.594 383.463 262.909 382.42 263.997L378 262.501C378.68 261.685 379.383 260.778 380.108 259.781C380.833 258.738 381.536 257.696 382.216 256.653C382.896 255.565 383.463 254.59 383.916 253.729ZM367.596 287.457H372.968C372.605 290.63 372.061 293.554 371.336 296.229C370.611 298.858 369.568 301.238 368.208 303.369C366.893 305.5 365.103 307.404 362.836 309.081C360.569 310.758 357.713 312.186 354.268 313.365C350.823 314.589 346.652 315.609 341.756 316.425C341.665 315.972 341.461 315.473 341.144 314.929C340.872 314.385 340.555 313.818 340.192 313.229C339.875 312.685 339.535 312.232 339.172 311.869C343.751 311.189 347.627 310.35 350.8 309.353C354.019 308.356 356.648 307.154 358.688 305.749C360.773 304.344 362.405 302.757 363.584 300.989C364.763 299.176 365.647 297.158 366.236 294.937C366.825 292.67 367.279 290.177 367.596 287.457ZM374.464 295.957C376.413 300.808 379.7 304.502 384.324 307.041C388.948 309.534 394.977 311.121 402.412 311.801C402.049 312.164 401.664 312.617 401.256 313.161C400.848 313.75 400.463 314.34 400.1 314.929C399.783 315.518 399.511 316.04 399.284 316.493C394.116 315.813 389.583 314.68 385.684 313.093C381.831 311.552 378.589 309.466 375.96 306.837C373.376 304.162 371.313 300.83 369.772 296.841L374.464 295.957ZM427.028 281.881L431.38 282.493C431.153 285.666 430.813 288.794 430.36 291.877C429.907 294.96 429.34 297.838 428.66 300.513C428.025 303.142 427.209 305.5 426.212 307.585C425.94 307.358 425.577 307.109 425.124 306.837C424.716 306.52 424.263 306.225 423.764 305.953C423.311 305.636 422.88 305.386 422.472 305.205C423.469 303.301 424.263 301.102 424.852 298.609C425.441 296.116 425.895 293.441 426.212 290.585C426.575 287.729 426.847 284.828 427.028 281.881ZM425.26 268.825H450.76V273.585H425.26V268.825ZM435.528 254.817H440.356V315.405H435.528V254.817ZM443.62 282.765L447.632 282.017C448.176 284.148 448.697 286.437 449.196 288.885C449.74 291.288 450.193 293.645 450.556 295.957C450.964 298.269 451.236 300.354 451.372 302.213L447.224 303.029C447.088 301.17 446.839 299.085 446.476 296.773C446.113 294.416 445.683 292.036 445.184 289.633C444.731 287.185 444.209 284.896 443.62 282.765ZM452.732 257.877H468.984V262.433H452.732V257.877ZM451.1 276.645H469.936V281.269H451.1V276.645ZM442.26 257.197L445.728 255.565C446.907 256.97 448.04 258.557 449.128 260.325C450.261 262.048 451.077 263.544 451.576 264.813L447.972 266.649C447.473 265.38 446.68 263.861 445.592 262.093C444.504 260.28 443.393 258.648 442.26 257.197ZM458.92 278.005H463.816V310.373C463.816 311.778 463.635 312.866 463.272 313.637C462.955 314.453 462.297 315.088 461.3 315.541C460.348 315.904 459.079 316.13 457.492 316.221C455.905 316.357 453.911 316.425 451.508 316.425C451.463 315.745 451.281 314.929 450.964 313.977C450.692 313.025 450.397 312.186 450.08 311.461C451.803 311.506 453.367 311.529 454.772 311.529C456.223 311.574 457.197 311.574 457.696 311.529C458.195 311.484 458.512 311.37 458.648 311.189C458.829 311.053 458.92 310.781 458.92 310.373V278.005ZM418.868 253.865L423.56 255.565C422.472 257.424 421.157 259.328 419.616 261.277C418.075 263.181 416.443 264.994 414.72 266.717C413.043 268.44 411.32 269.981 409.552 271.341C409.371 271.024 409.099 270.638 408.736 270.185C408.419 269.686 408.079 269.21 407.716 268.757C407.353 268.258 407.036 267.85 406.764 267.533C408.305 266.354 409.847 265.017 411.388 263.521C412.975 261.98 414.425 260.37 415.74 258.693C417.055 257.016 418.097 255.406 418.868 253.865ZM414.856 280.997L418.936 276.849L419.548 277.053V316.493H414.856V280.997ZM420.908 267.533L425.464 269.097C424.149 271.908 422.585 274.696 420.772 277.461C418.959 280.181 417.032 282.742 414.992 285.145C412.952 287.548 410.889 289.678 408.804 291.537C408.623 291.174 408.351 290.721 407.988 290.177C407.625 289.588 407.24 289.021 406.832 288.477C406.424 287.888 406.061 287.434 405.744 287.117C408.691 284.714 411.524 281.79 414.244 278.345C416.964 274.9 419.185 271.296 420.908 267.533ZM510.464 308.469H533.924V312.957H510.464V308.469ZM508.356 272.157H513.048V316.425H508.356V272.157ZM510.464 272.157H533.176V289.157H510.464V284.873H528.416V276.441H510.464V272.157ZM504.208 261.277H537.664V272.769H532.836V265.493H508.832V272.769H504.208V261.277ZM518.012 253.797H523.044V263.589H518.012V253.797ZM510.464 294.869H536.032V315.949H531.272V299.221H510.464V294.869ZM489.18 265.357H493.532V273.789H489.18V265.357ZM480.272 271.817H484.896V309.761H480.272V271.817ZM483.128 280.997H498.972V284.601H483.128V280.997ZM475.58 308.945C477.529 308.492 479.728 307.993 482.176 307.449C484.669 306.86 487.299 306.225 490.064 305.545C492.875 304.82 495.663 304.117 498.428 303.437L498.972 307.517C495.164 308.65 491.333 309.761 487.48 310.849C483.672 311.892 480.249 312.844 477.212 313.705L475.58 308.945ZM491.628 298.337L495.708 296.501C496.932 298.088 498.111 299.81 499.244 301.669C500.423 303.482 501.443 305.296 502.304 307.109C503.211 308.877 503.891 310.464 504.344 311.869L499.992 313.977C499.584 312.572 498.949 310.962 498.088 309.149C497.227 307.29 496.229 305.432 495.096 303.573C494.008 301.669 492.852 299.924 491.628 298.337ZM482.788 271.817H501.216V293.985H482.788V290.109H496.66V275.693H482.788V271.817ZM487.82 253.865H490.54V254.953H492.036V256.381C491.129 258.104 489.996 260.03 488.636 262.161C487.276 264.246 485.667 266.377 483.808 268.553C481.995 270.684 479.887 272.724 477.484 274.673C477.257 274.31 476.94 273.925 476.532 273.517C476.169 273.109 475.784 272.724 475.376 272.361C474.968 271.953 474.583 271.636 474.22 271.409C476.441 269.732 478.413 267.873 480.136 265.833C481.859 263.793 483.355 261.753 484.624 259.713C485.939 257.628 487.004 255.678 487.82 253.865ZM489.112 253.865H492.784C494.144 255.044 495.549 256.336 497 257.741C498.451 259.146 499.788 260.552 501.012 261.957C502.236 263.362 503.211 264.654 503.936 265.833L500.604 269.641C499.879 268.508 498.949 267.193 497.816 265.697C496.683 264.201 495.436 262.705 494.076 261.209C492.716 259.713 491.356 258.444 489.996 257.401H489.112V253.865Z" fill="black"/>
</g>
<defs>
<linearGradient id="paint0_linear_144_131" x1="4.00012" y1="6.98486" x2="1983.41" y2="6.98486" gradientUnits="userSpaceOnUse">
<stop/>
<stop offset="0.5" stop-color="#666666"/>
<stop offset="1"/>
</linearGradient>
<linearGradient id="paint1_linear_144_131" x1="23.7946" y1="6.98486" x2="2003.21" y2="6.98486" gradientUnits="userSpaceOnUse">
<stop/>
<stop offset="0.5" stop-color="#666666"/>
<stop offset="1"/>
</linearGradient>
<linearGradient id="paint2_linear_144_131" x1="43.5881" y1="46.9849" x2="2023" y2="46.9849" gradientUnits="userSpaceOnUse">
<stop/>
<stop offset="0.5" stop-color="#666666"/>
<stop offset="1"/>
</linearGradient>
<linearGradient id="paint3_linear_144_131" x1="83.1766" y1="46.9849" x2="2062.59" y2="46.9849" gradientUnits="userSpaceOnUse">
<stop/>
<stop offset="0.5" stop-color="#666666"/>
<stop offset="1"/>
</linearGradient>
<linearGradient id="paint4_linear_144_131" x1="102.971" y1="6.98486" x2="2082.38" y2="6.98486" gradientUnits="userSpaceOnUse">
<stop/>
<stop offset="0.5" stop-color="#666666"/>
<stop offset="1"/>
</linearGradient>
<linearGradient id="paint5_linear_144_131" x1="122.765" y1="6.98486" x2="2102.18" y2="6.98486" gradientUnits="userSpaceOnUse">
<stop/>
<stop offset="0.5" stop-color="#666666"/>
<stop offset="1"/>
</linearGradient>
<linearGradient id="paint6_linear_144_131" x1="177.199" y1="6.98486" x2="3026.77" y2="6.98486" gradientUnits="userSpaceOnUse">
<stop/>
<stop offset="0.5" stop-color="#666666"/>
<stop offset="1"/>
</linearGradient>
<linearGradient id="paint7_linear_144_131" x1="205.695" y1="6.98486" x2="6379.77" y2="6.98486" gradientUnits="userSpaceOnUse">
<stop/>
<stop offset="0.5" stop-color="#666666"/>
<stop offset="1"/>
</linearGradient>
<linearGradient id="paint8_linear_144_131" x1="205.695" y1="176.985" x2="6379.77" y2="176.985" gradientUnits="userSpaceOnUse">
<stop/>
<stop offset="0.5" stop-color="#666666"/>
<stop offset="1"/>
</linearGradient>
<linearGradient id="paint9_linear_144_131" x1="267.435" y1="6.98486" x2="3117.01" y2="6.98486" gradientUnits="userSpaceOnUse">
<stop/>
<stop offset="0.5" stop-color="#666666"/>
<stop offset="1"/>
</linearGradient>
<linearGradient id="paint10_linear_144_131" x1="330.636" y1="6.98486" x2="7258.58" y2="6.98486" gradientUnits="userSpaceOnUse">
<stop/>
<stop offset="0.5" stop-color="#666666"/>
<stop offset="1"/>
</linearGradient>
<linearGradient id="paint11_linear_144_131" x1="350.43" y1="6.98486" x2="3319.55" y2="6.98486" gradientUnits="userSpaceOnUse">
<stop/>
<stop offset="0.5" stop-color="#666666"/>
<stop offset="1"/>
</linearGradient>
<linearGradient id="paint12_linear_144_131" x1="330.636" y1="176.985" x2="7258.58" y2="176.985" gradientUnits="userSpaceOnUse">
<stop/>
<stop offset="0.5" stop-color="#666666"/>
<stop offset="1"/>
</linearGradient>
<linearGradient id="paint13_linear_144_131" x1="441.978" y1="6.98486" x2="3411.1" y2="6.98486" gradientUnits="userSpaceOnUse">
<stop/>
<stop offset="0.5" stop-color="#666666"/>
<stop offset="1"/>
</linearGradient>
<linearGradient id="paint14_linear_144_131" x1="471.669" y1="6.98486" x2="6904.76" y2="6.98486" gradientUnits="userSpaceOnUse">
<stop/>
<stop offset="0.5" stop-color="#666666"/>
<stop offset="1"/>
</linearGradient>
<linearGradient id="paint15_linear_144_131" x1="471.669" y1="176.985" x2="6904.76" y2="176.985" gradientUnits="userSpaceOnUse">
<stop/>
<stop offset="0.5" stop-color="#666666"/>
<stop offset="1"/>
</linearGradient>
<clipPath id="clip0_144_131">
<rect width="540" height="320" fill="white"/>
</clipPath>
</defs>
</svg>
